<?xml version="1.0" standalone="no"?>
<!DOCTYPE svg PUBLIC "-//W3C//DTD SVG 20010904//EN"
 "http://www.w3.org/TR/2001/REC-SVG-20010904/DTD/svg10.dtd">
<svg version="1.0" xmlns="http://www.w3.org/2000/svg"
 width="16.000000pt" height="16.000000pt" viewBox="0 0 16.000000 16.000000"
 preserveAspectRatio="xMidYMid meet">
<metadata>
Created by potrace 1.11, written by Peter Selinger 2001-2013
</metadata>
<g transform="translate(0.000000,16.000000) scale(0.008000,-0.008000)"
fill="#000000" stroke="none">
<path d="M173 1522 c-45 -14 -57 -32 -24 -32 23 0 36 -16 19 -23 -10 -3 -10
-9 -1 -25 8 -13 9 -23 3 -27 -5 -3 -7 -12 -4 -19 3 -8 0 -17 -7 -22 -8 -5 -10
-3 -4 7 11 20 -9 0 -89 -90 -36 -41 -66 -80 -66 -86 0 -17 47 -55 62 -51 44
14 69 16 63 5 -6 -8 -2 -8 12 0 11 6 24 7 28 3 5 -4 5 -1 1 6 -4 6 -2 12 3 12
6 0 11 5 11 11 0 7 -10 5 -25 -5 -16 -11 -25 -12 -25 -5 0 8 -4 8 -13 1 -6 -5
-25 -12 -42 -14 -25 -2 -29 0 -27 17 2 11 5 25 5 30 1 6 -7 9 -17 7 -16 -3
-13 4 13 37 36 45 46 51 38 21 -3 -10 2 -25 10 -32 20 -16 53 -21 53 -7 0 5
-3 8 -7 6 -5 -3 -18 -1 -30 4 -15 5 -20 14 -16 28 7 26 23 28 18 2 -4 -19 9
-22 33 -8 7 5 9 14 5 20 -4 7 0 6 10 -2 14 -11 18 -11 24 5 5 13 19 19 40 20
27 0 31 -2 22 -17 -6 -12 -5 -20 3 -25 6 -4 8 -3 4 4 -3 6 -2 13 3 16 10 7 23
-19 14 -28 -10 -10 -43 -7 -43 3 0 10 -67 7 -77 -3 -13 -13 7 -17 27 -6 18 10
24 9 31 -1 14 -22 10 -33 -6 -19 -14 12 -54 6 -42 -7 4 -3 2 -12 -4 -19 -8 -9
-5 -11 11 -7 16 4 18 8 9 19 -9 11 -8 14 4 14 12 0 14 -7 11 -27 -5 -24 -3
-25 12 -12 10 8 15 9 11 3 -4 -7 2 -11 18 -11 14 0 22 3 20 8 -3 4 0 11 6 15
8 5 9 3 4 -6 -6 -10 -4 -12 8 -7 10 3 17 2 17 -2 0 -5 -5 -11 -10 -13 -6 -2 7
-4 30 -4 35 -1 41 2 46 23 5 18 9 21 15 12 4 -7 6 -16 3 -20 -2 -4 1 -11 7
-15 7 -4 9 -3 6 2 -3 6 -2 15 2 22 5 9 11 5 19 -13 7 -15 8 -24 2 -20 -6 3 -7
-1 -4 -9 3 -9 10 -14 14 -11 5 3 12 0 16 -6 4 -8 3 -9 -4 -5 -7 4 -12 1 -12
-6 0 -7 -11 0 -25 15 -14 15 -29 27 -32 27 -4 0 7 -15 24 -32 17 -18 54 -67
83 -108 28 -41 56 -74 61 -73 4 2 6 -3 4 -10 -5 -15 62 -93 72 -83 4 4 -3 16
-17 27 -15 11 -18 17 -7 13 13 -5 17 -1 17 19 0 14 -5 29 -11 32 -6 4 -8 13
-5 21 3 7 1 16 -4 19 -11 7 -14 55 -4 55 4 0 13 -8 20 -17 12 -16 12 -16 7 5
-3 15 -13 22 -28 22 -23 0 -27 13 -11 39 7 11 5 13 -7 8 -20 -8 -20 -7 -6 30
8 22 12 24 19 13 6 -9 10 -10 10 -3 0 6 -4 14 -9 18 -6 3 -6 18 -1 37 10 33 5
52 -11 42 -5 -3 -8 -23 -6 -44 2 -24 -1 -41 -8 -44 -9 -3 -11 7 -8 35 3 22 1
39 -5 39 -6 0 -8 -8 -5 -19 3 -10 1 -21 -4 -24 -4 -3 -8 8 -9 24 -1 20 5 30
18 35 10 3 16 9 13 14 -8 14 6 40 22 40 13 0 13 3 3 15 -7 8 -9 15 -4 15 5 0
2 5 -6 10 -20 12 -39 -24 -33 -62 2 -16 0 -28 -6 -28 -6 0 -13 0 -16 0 -3 0
-5 3 -4 8 1 4 5 6 10 5 4 -2 4 7 0 20 -5 12 -14 21 -21 19 -7 -1 -10 3 -8 10
3 7 10 13 16 13 5 0 14 5 19 10 4 6 4 7 -1 3 -5 -4 -16 -2 -24 5 -13 9 -14 9
-8 0 4 -8 2 -13 -5 -13 -7 0 -9 -9 -6 -22 4 -14 0 -26 -11 -34 -15 -12 -15
-13 4 -8 13 3 21 0 22 -8 1 -7 3 -25 6 -39 2 -17 -1 -26 -10 -26 -7 0 -11 4
-8 9 3 4 0 8 -6 8 -6 0 -9 4 -6 9 3 5 -1 11 -9 14 -8 4 -12 15 -10 27 3 16 0
20 -10 16 -18 -6 -40 29 -25 39 5 3 10 11 10 17 0 6 -7 5 -17 -3 -14 -12 -16
-12 -8 0 6 11 4 13 -8 8 -16 -6 -22 7 -18 40 2 19 -16 24 -29 8 -19 -22 -37
-18 -44 10 -4 14 -14 25 -22 25 -14 0 -14 -3 -4 -15 11 -13 10 -14 -3 -10 -8
4 -18 1 -23 -6 -5 -8 -3 -10 6 -4 9 5 11 4 6 -3 -5 -9 -14 -7 -32 5 -35 23
-48 49 -27 57 9 4 18 4 21 1 3 -3 0 -5 -6 -5 -7 0 -12 -5 -12 -11 0 -5 5 -7
12 -3 6 4 8 3 4 -4 -16 -27 16 -19 49 12 38 36 46 38 82 18 26 -15 33 -15 33
-2 0 6 -5 10 -12 10 -7 0 -27 14 -44 31 -38 37 -85 43 -151 21z m84 -13 c2
-18 0 -19 -14 -7 -9 7 -18 12 -20 11 -1 -2 -11 -2 -20 -2 -15 1 6 9 47 18 3 0
6 -8 7 -20z m-51 -36 c-10 -10 -19 5 -10 18 6 11 8 11 12 0 2 -7 1 -15 -2 -18z
m146 -95 c-7 -7 -12 -8 -12 -2 0 14 12 26 19 19 2 -3 -1 -11 -7 -17z m-119
-29 c-14 -14 -46 -8 -49 9 -1 7 0 8 3 2 2 -5 14 -10 25 -10 15 0 18 4 13 18
-5 14 -4 15 6 5 10 -10 10 -16 2 -24z m69 -4 c3 0 9 -3 13 -7 4 -3 0 -5 -9 -4
-9 1 -22 8 -29 16 -10 10 -9 11 3 4 8 -5 18 -9 22 -9z m-146 -11 c-3 -9 -6
-18 -6 -20 0 -3 -5 -2 -10 1 -7 4 -8 -3 -4 -22 4 -16 3 -25 -2 -20 -9 8 -10
12 -13 38 -1 8 -6 8 -18 -1 -10 -7 -5 -1 10 14 31 29 52 34 43 10z m385 -17
c-10 -9 -11 -8 -5 6 3 10 9 15 12 12 3 -3 0 -11 -7 -18z m-152 -24 c-4 -22 2
-43 12 -43 5 0 7 5 3 12 -4 7 -3 8 4 4 6 -4 8 -14 5 -23 -5 -12 -2 -15 8 -11
10 4 15 -1 16 -13 2 -18 0 -18 -14 -3 -9 8 -26 22 -39 30 -14 10 -21 21 -17
31 5 12 3 14 -7 8 -9 -5 -11 -4 -6 3 8 13 37 17 35 5z m-45 -87 c-8 -20 -18
-20 -34 -1 -11 13 -10 14 3 10 8 -4 18 -1 22 5 10 16 17 6 9 -14z m129 -54
c-4 -17 7 -15 29 5 10 9 18 11 18 6 0 -6 -7 -13 -15 -16 -8 -4 -12 -15 -10
-27 2 -13 -1 -20 -11 -20 -19 0 -18 -34 2 -51 13 -11 15 -9 10 17 l-6 29 15
-32 c8 -18 20 -33 26 -33 5 0 7 5 4 10 -3 6 -1 10 6 10 7 0 9 -10 6 -29 -5
-21 -2 -31 10 -35 9 -4 13 -9 10 -12 -3 -3 -12 -2 -19 2 -7 5 -17 9 -22 9 -18
0 -17 25 1 25 17 1 16 2 -2 13 -11 6 -24 12 -29 12 -16 0 -68 73 -61 85 5 8
11 8 21 -1 11 -9 18 -9 25 -2 8 8 5 13 -9 17 -26 9 -39 39 -14 34 9 -2 16 -10
15 -16z m100 -206 c4 -10 1 -13 -8 -9 -8 3 -12 9 -9 14 7 12 11 11 17 -5z"/>
<path d="M1712 1500 c50 -9 75 -34 93 -89 7 -25 14 -40 14 -32 4 64 -57 132
-115 130 -26 -1 -25 -2 8 -9z"/>
<path d="M1510 1491 c0 -6 5 -13 10 -16 6 -3 10 1 10 9 0 9 -4 16 -10 16 -5 0
-10 -4 -10 -9z"/>
<path d="M1548 1493 c7 -3 16 -2 19 1 4 3 -2 6 -13 5 -11 0 -14 -3 -6 -6z"/>
<path d="M1636 1491 c-4 -5 3 -7 14 -4 23 6 26 13 6 13 -8 0 -17 -4 -20 -9z"/>
<path d="M1435 1482 c-2 -3 -23 -4 -47 -4 -24 0 -36 -3 -28 -6 8 -3 18 -10 22
-15 4 -7 12 -6 22 2 9 8 16 10 16 5 0 -13 -20 -41 -20 -29 0 6 -4 3 -9 -5 -14
-20 -3 -32 22 -25 19 5 19 4 -3 -9 -14 -9 -20 -15 -14 -16 5 0 19 6 30 14 15
12 17 17 7 27 -18 18 -16 29 5 29 13 0 14 2 4 9 -10 6 -7 10 14 15 15 4 30 4
33 -1 3 -4 17 -17 31 -28 l24 -20 -24 32 c-19 24 -32 31 -53 30 -15 -1 -30 -3
-32 -5z"/>
<path d="M976 1472 c-3 -4 4 -9 15 -9 23 -2 25 3 4 10 -8 4 -16 3 -19 -1z"/>
<path d="M1173 1473 c9 -2 25 -2 35 0 9 3 1 5 -18 5 -19 0 -27 -2 -17 -5z"/>
<path d="M1238 1473 c7 -3 16 -2 19 1 4 3 -2 6 -13 5 -11 0 -14 -3 -6 -6z"/>
<path d="M1317 1468 c17 -11 20 -17 12 -33 -9 -18 -9 -18 3 -3 9 10 19 13 27
8 11 -6 11 -9 0 -16 -8 -5 -14 -18 -14 -29 0 -12 -6 -19 -14 -17 -8 2 -11 -3
-8 -12 5 -12 1 -15 -16 -12 -12 2 -30 -1 -40 -6 -12 -6 -17 -5 -15 4 2 7 7 16
12 19 4 4 3 9 -2 13 -6 3 -13 -3 -17 -13 -6 -19 -7 -19 -25 -4 -16 14 -17 20
-7 32 10 14 10 14 -5 3 -16 -13 -16 -16 -1 -38 9 -15 11 -24 4 -24 -6 0 -11 4
-11 8 0 5 -7 9 -15 9 -23 0 -18 -10 20 -44 19 -17 35 -29 35 -26 0 2 7 -2 15
-11 8 -8 15 -22 15 -30 0 -9 7 -16 15 -16 24 0 17 26 -13 52 -34 29 -58 62
-27 38 55 -42 67 -59 69 -93 1 -19 -2 -33 -6 -31 -5 3 -8 1 -8 -5 0 -5 3 -11
8 -14 4 -2 2 -3 -5 -1 -6 1 -14 0 -17 -4 -11 -10 -36 -11 -36 0 0 5 -9 22 -20
38 -11 15 -17 29 -15 32 2 2 -4 4 -15 5 -32 3 -34 -28 -3 -53 15 -12 31 -20
34 -18 4 2 9 -6 12 -17 4 -15 2 -19 -8 -15 -8 3 -17 0 -21 -6 -4 -6 -3 -8 4
-4 6 3 14 1 18 -5 3 -6 20 -17 37 -24 17 -7 32 -20 33 -29 1 -9 -2 -14 -7 -10
-5 3 -9 -1 -9 -8 0 -8 -3 -9 -8 -3 -4 6 -14 11 -22 13 -11 3 -9 -3 5 -20 11
-13 16 -20 11 -16 -5 4 -18 -4 -29 -18 -14 -18 -27 -24 -43 -21 -13 2 -21 1
-19 -4 3 -4 -4 -14 -15 -22 -11 -7 -17 -17 -14 -20 4 -3 14 2 23 11 9 10 12
12 7 5 -13 -19 24 -30 38 -11 6 8 21 18 34 22 12 4 20 12 17 17 -4 5 -1 9 4 9
17 0 13 -18 -6 -29 -10 -6 -13 -11 -6 -11 22 0 43 41 32 63 -8 14 -8 18 0 13
6 -4 11 -2 11 4 0 6 5 8 10 5 6 -4 10 -3 9 2 -1 4 -1 19 0 32 1 21 3 22 18 10
14 -11 13 -9 -2 12 -18 25 -45 35 -45 17 0 -4 -7 -8 -16 -8 -13 0 -14 3 -4 15
6 8 9 19 5 25 -3 5 -2 10 3 10 6 0 13 -8 16 -17 5 -13 9 -14 19 -4 6 6 12 19
12 29 0 12 7 16 22 14 30 -4 38 15 17 46 l-17 26 -10 -22 c-6 -12 -15 -22 -21
-22 -6 0 -5 5 2 12 16 16 15 43 -3 58 -22 19 -18 27 13 26 15 -1 33 3 40 8 7
5 12 4 12 -3 0 -6 -4 -11 -10 -11 -5 0 -10 -7 -10 -15 0 -8 -6 -15 -12 -15 -7
-1 -3 -9 10 -19 12 -11 22 -24 22 -30 0 -6 6 -11 14 -11 7 0 16 -9 19 -19 6
-24 39 -21 43 3 2 14 0 15 -12 5 -8 -6 -17 -9 -21 -5 -3 3 -1 6 7 6 10 0 10 4
-1 17 -10 11 -10 14 -1 9 17 -10 15 2 -3 20 -8 9 -15 21 -15 27 0 7 4 6 10 -3
8 -13 10 -12 10 3 0 10 -7 20 -15 23 -23 9 -8 23 18 17 18 -5 20 -3 10 8 -22
23 -14 33 10 12 12 -11 29 -24 37 -28 9 -5 11 -4 5 1 -63 56 -87 76 -76 62 8
-11 9 -18 3 -18 -6 0 -14 5 -17 10 -4 6 -11 8 -16 5 -5 -4 -9 -1 -9 5 0 6 -5
8 -12 4 -9 -5 -9 -3 1 9 11 14 11 18 -4 23 -13 5 -14 9 -4 15 10 6 7 13 -12
31 -14 13 -34 24 -45 26 -17 2 -16 1 3 -10z m-99 -263 l12 -26 -25 18 c-27 20
-32 33 -12 33 8 0 19 -11 25 -25z m57 -74 c-9 -16 -25 -3 -18 15 4 10 9 12 15
6 6 -6 7 -15 3 -21z"/>
<path d="M1694 1464 c-10 -8 -13 -13 -7 -9 8 4 11 1 7 -8 -3 -8 6 -18 21 -25
29 -14 32 -27 8 -42 -16 -10 -16 -11 -1 -6 9 3 19 2 21 -2 2 -4 2 -2 1 5 -4
16 26 26 30 10 3 -6 8 -37 14 -67 l9 -55 2 63 c1 55 -3 69 -29 108 -34 48 -46
52 -76 28z"/>
<path d="M317 1462 c-8 -16 -7 -72 2 -72 6 0 8 9 6 21 -3 14 0 19 9 16 7 -3
13 0 13 7 0 15 -25 38 -30 28z"/>
<path d="M390 1461 c0 -4 10 -16 22 -27 19 -15 20 -16 9 -1 -9 11 -10 17 -2
17 20 0 12 16 -9 17 -11 1 -20 -2 -20 -6z"/>
<path d="M442 1446 c0 -12 2 -16 6 -10 4 6 16 16 27 22 19 11 18 11 -6 10 -17
-2 -26 -8 -27 -22z"/>
<path d="M493 1455 c-10 -11 -10 -15 0 -18 9 -4 9 -6 0 -6 -7 -1 -13 -6 -13
-12 0 -5 5 -7 10 -4 6 3 10 -4 10 -17 0 -18 -2 -20 -10 -8 -5 8 -11 12 -14 9
-3 -2 -1 -11 3 -18 15 -23 31 -2 31 39 0 28 5 40 18 43 14 4 14 5 -3 5 -11 1
-25 -5 -32 -13z"/>
<path d="M1028 1463 c6 -2 18 -2 25 0 6 3 1 5 -13 5 -14 0 -19 -2 -12 -5z"/>
<path d="M1098 1463 c7 -3 16 -2 19 1 4 3 -2 6 -13 5 -11 0 -14 -3 -6 -6z"/>
<path d="M1304 1452 c4 -7 1 -12 -8 -12 -8 0 -18 -5 -22 -12 -4 -6 -3 -8 3 -5
6 4 16 0 22 -7 8 -10 9 -16 1 -21 -5 -3 -10 -2 -10 2 0 5 -10 9 -22 10 l-23 2
23 -13 c12 -6 20 -14 17 -17 -3 -3 2 -6 10 -6 8 0 13 3 10 5 -3 3 0 11 6 18 7
8 7 14 -1 19 -8 5 -8 10 0 20 8 10 8 15 -1 21 -8 4 -9 3 -5 -4z"/>
<path d="M526 1438 c3 -4 11 -5 19 -1 21 7 19 12 -4 10 -11 0 -18 -5 -15 -9z"/>
<path d="M1140 1440 c-11 -7 -11 -10 -2 -10 7 0 10 -5 6 -11 -4 -8 0 -8 15 0
25 14 28 23 4 14 -11 -4 -14 -3 -9 5 9 14 6 15 -14 2z"/>
<path d="M1646 1441 c-3 -5 2 -15 11 -22 12 -10 14 -10 9 -1 -4 7 -2 12 4 12
6 0 8 5 5 10 -8 12 -22 13 -29 1z"/>
<path d="M375 1419 c3 -13 9 -25 15 -27 6 -2 7 -9 3 -15 -3 -7 -2 -9 2 -4 5 4
18 -1 29 -10 20 -17 20 -17 7 0 -12 15 -11 17 3 17 21 0 12 16 -17 30 -20 10
-21 10 -4 -3 10 -9 14 -18 9 -21 -10 -6 -41 23 -40 37 0 5 -3 11 -6 14 -3 3
-3 -5 -1 -18z"/>
<path d="M550 1420 c0 -5 5 -10 11 -10 5 0 7 5 4 10 -3 6 -8 10 -11 10 -2 0
-4 -4 -4 -10z"/>
<path d="M1490 1419 c0 -5 5 -7 10 -4 6 3 10 8 10 11 0 2 -4 4 -10 4 -5 0 -10
-5 -10 -11z"/>
<path d="M531 1410 c-1 -23 15 -43 28 -36 6 4 11 13 11 19 0 7 -4 6 -10 -3 -7
-12 -11 -10 -19 10 -5 14 -10 18 -10 10z"/>
<path d="M1523 1413 c-15 -5 -17 -23 -4 -23 5 0 11 7 15 15 3 8 4 15 3 14 -1
0 -8 -3 -14 -6z"/>
<path d="M595 1401 c-3 -5 -2 -12 3 -15 5 -3 9 1 9 9 0 17 -3 19 -12 6z"/>
<path d="M1447 1396 c-3 -8 3 -22 14 -32 10 -9 19 -14 19 -9 0 4 -8 14 -17 22
-16 13 -15 14 12 8 32 -7 32 -4 -2 13 -16 9 -22 9 -26 -2z"/>
<path d="M1705 1400 c-3 -6 1 -7 9 -4 18 7 21 14 7 14 -6 0 -13 -4 -16 -10z"/>
<path d="M1668 1375 c2 -14 8 -25 13 -25 13 0 11 -24 -4 -45 -11 -14 -16 -15
-22 -5 -5 8 -4 11 2 7 6 -4 13 0 17 8 3 8 0 17 -6 21 -7 4 -8 3 -4 -4 4 -7 2
-12 -3 -12 -6 0 -11 6 -11 14 0 8 -7 16 -15 20 -12 4 -13 2 -6 -13 7 -13 5
-25 -6 -42 -15 -20 -15 -22 -1 -11 13 10 18 9 29 -5 10 -12 11 -15 1 -9 -7 4
-19 3 -26 -3 -10 -8 -17 -7 -26 4 -7 8 -18 15 -24 15 -6 0 -5 -4 3 -9 15 -9
23 -32 22 -63 0 -10 5 -21 11 -24 7 -4 8 -2 4 4 -4 7 -2 12 5 12 8 0 8 4 -1
15 -7 9 -10 18 -6 22 3 3 6 1 6 -5 0 -7 5 -12 11 -12 8 0 8 4 0 14 -8 10 -9
16 -1 21 5 3 10 5 11 3 7 -29 5 -45 -8 -65 -13 -19 -14 -31 -6 -56 7 -22 6
-38 -1 -49 -7 -12 -7 -24 2 -40 17 -34 18 -50 4 -76 -7 -12 -9 -28 -5 -35 13
-20 13 -46 1 -53 -7 -5 -9 -2 -5 9 4 11 2 14 -8 10 -11 -4 -12 -9 -4 -26 9
-16 9 -19 -2 -15 -10 4 -14 -4 -14 -27 0 -18 3 -31 8 -28 4 2 7 -6 7 -19 1
-22 1 -22 16 4 8 15 12 39 10 53 -7 37 10 31 18 -6 8 -42 8 -51 -3 -45 -5 3
-9 -4 -9 -17 0 -12 -3 -33 -6 -47 -4 -16 0 -13 11 10 9 19 17 58 18 85 1 28 2
56 3 63 2 14 25 16 50 3 9 -5 34 -16 55 -25 35 -15 56 -45 62 -86 7 -55 18
-101 24 -105 10 -6 6 59 -5 77 -6 11 -5 10 9 -1 9 -7 17 -24 17 -38 0 -16 4
-22 12 -17 6 4 8 3 4 -4 -3 -6 2 -16 11 -22 17 -11 17 -11 1 -6 -10 3 -18 1
-18 -4 0 -9 16 -13 46 -13 6 0 9 -11 6 -26 -3 -14 -1 -23 3 -19 4 4 14 0 21
-10 12 -15 12 -13 4 15 -7 28 -6 33 11 38 22 7 21 27 -2 33 -11 3 -11 2 1 -7
11 -8 11 -11 2 -11 -20 0 -83 62 -77 77 2 8 1 11 -4 8 -5 -3 -13 0 -17 6 -5 8
-3 9 6 4 10 -6 12 -4 7 9 -4 11 -3 15 4 11 13 -8 33 -56 30 -70 -2 -5 1 -7 5
-3 4 4 13 3 20 -3 7 -5 4 7 -7 28 -25 49 -26 71 -1 52 9 -7 3 2 -14 21 -17 19
-40 48 -52 64 -18 24 -22 26 -23 10 -1 -11 0 -23 1 -29 1 -5 3 -19 4 -31 2
-11 6 -27 10 -35 4 -8 -2 -3 -13 11 -11 14 -20 32 -19 40 5 38 -32 84 -47 60
-4 -6 -13 -10 -21 -10 -10 0 -12 5 -8 12 5 7 9 20 9 30 1 13 -2 15 -17 7 -12
-7 -18 -6 -18 1 0 6 -3 9 -7 7 -5 -3 -8 5 -8 18 0 13 3 21 7 19 3 -2 8 2 11 8
3 10 9 11 26 1 34 -21 49 -15 16 7 -31 21 -46 48 -41 77 2 10 7 51 11 92 5 56
4 72 -5 66 -6 -4 -9 -9 -6 -13 3 -3 -2 -11 -12 -19 -9 -8 -11 -12 -4 -8 7 4 2
-18 -13 -51 -31 -70 -35 -75 -31 -38 2 15 8 30 14 32 6 2 8 10 5 18 -3 8 -1
14 3 14 5 0 10 10 11 23 2 12 5 43 8 69 3 35 1 47 -11 52 -8 3 -13 10 -10 15
3 5 1 23 -5 40 -13 38 -38 43 -31 6z m39 -117 c-1 -13 -6 -26 -11 -30 -8 -5
-15 -34 -18 -75 -1 -7 -4 -13 -7 -13 -3 0 -7 -11 -8 -25 -4 -45 -6 -55 -14
-55 -11 0 -18 26 -10 36 8 10 30 76 36 109 2 11 4 21 4 23 1 1 1 5 2 10 2 11
19 42 24 42 3 0 4 -10 2 -22z m22 -180 c0 -13 3 -34 7 -47 5 -16 4 -22 -4 -18
-5 4 -12 1 -15 -5 -2 -7 -3 5 -1 27 1 22 3 46 3 53 2 22 11 13 10 -10z m-54
-28 c-3 -5 -12 -10 -18 -10 -7 0 -6 4 3 10 19 12 23 12 15 0z m25 -37 c-1 -5
-10 -24 -21 -43 l-20 -35 7 35 c7 41 12 50 25 50 5 0 9 -3 9 -7z m15 -64 c-4
-13 -1 -19 9 -20 32 -3 36 -4 34 -14 -3 -13 -29 -7 -49 11 -17 15 -14 59 3 48
5 -3 6 -14 3 -25z m98 -63 c4 -10 1 -13 -8 -9 -8 3 -12 9 -9 14 7 12 11 11 17
-5z"/>
<path d="M1130 1376 c26 -15 40 -12 40 7 0 9 -2 9 -8 0 -5 -8 -13 -9 -22 -3
-8 6 -19 10 -25 9 -5 0 1 -6 15 -13z"/>
<path d="M459 1375 c-1 -3 -2 -10 -3 -15 0 -6 -7 -14 -14 -19 -8 -5 -14 -12
-15 -17 -1 -5 -5 -8 -9 -7 -4 2 -5 -4 -1 -13 5 -15 7 -14 16 1 8 14 11 15 19
4 7 -11 8 -9 4 4 -3 11 -3 24 1 30 9 14 13 37 7 37 -2 0 -5 -2 -5 -5z"/>
<path d="M584 1360 c0 -13 4 -16 10 -10 7 7 7 13 0 20 -6 6 -10 3 -10 -10z"/>
<path d="M1030 1380 c-9 -38 -9 -53 -1 -41 7 10 13 11 30 2 12 -7 19 -16 16
-22 -4 -5 -1 -8 7 -7 7 2 12 -3 10 -10 -1 -8 2 -11 7 -8 5 4 12 2 16 -4 3 -5
1 -10 -6 -10 -7 0 -10 -3 -6 -6 3 -3 11 -3 17 1 8 5 2 18 -19 39 -17 18 -29
35 -26 38 4 3 1 9 -6 14 -8 4 -10 3 -5 -4 11 -19 -5 -14 -20 6 -7 9 -14 15
-14 12z"/>
<path d="M1094 1357 c1 -8 19 -34 40 -58 21 -24 35 -39 32 -32 -3 6 -3 13 1
16 5 2 2 2 -4 1 -7 -2 -13 3 -13 11 0 8 -5 15 -11 15 -5 0 -7 6 -3 13 4 6 4 9
-1 5 -12 -11 -35 11 -28 28 3 8 1 14 -5 14 -6 0 -9 -6 -8 -13z"/>
<path d="M635 1350 c-4 -6 -10 -8 -15 -5 -4 3 -10 -1 -13 -8 -8 -20 19 -16 32
5 6 10 9 18 7 18 -3 0 -8 -5 -11 -10z"/>
<path d="M1120 1356 c0 -2 7 -7 16 -10 8 -3 12 -2 9 4 -6 10 -25 14 -25 6z"/>
<path d="M672 1341 c-11 -6 -10 -10 4 -15 20 -8 32 0 18 14 -5 5 -15 5 -22 1z"/>
<path d="M1545 1339 c3 -8 14 -20 24 -26 14 -9 18 -8 18 3 0 8 -3 12 -5 9 -3
-3 -14 3 -24 12 -14 13 -18 13 -13 2z"/>
<path d="M1722 1333 c2 -9 10 -19 18 -21 12 -4 13 -3 3 10 -10 12 -10 15 0 15
7 0 12 -14 13 -33 0 -18 -3 -31 -8 -28 -4 3 -5 -2 -2 -10 10 -25 23 -19 19 9
-1 14 1 25 5 25 4 0 5 11 2 25 -3 19 -11 25 -29 25 -17 0 -24 -5 -21 -17z"/>
<path d="M1815 1340 c-3 -5 -1 -10 4 -10 6 0 11 5 11 10 0 6 -2 10 -4 10 -3 0
-8 -4 -11 -10z"/>
<path d="M1034 1319 c-4 -7 -3 -9 4 -5 5 3 13 0 15 -6 4 -9 6 -10 6 -1 1 17
-16 25 -25 12z"/>
<path d="M1168 1311 c13 -12 20 -25 16 -35 -5 -12 0 -16 20 -16 17 0 26 -5 26
-16 0 -9 9 -27 20 -41 11 -14 20 -20 20 -14 0 7 4 10 9 7 5 -3 12 1 15 9 5 13
2 14 -15 5 -16 -9 -20 -8 -18 2 1 7 1 18 0 24 -1 15 -47 64 -59 64 -6 0 -12 7
-16 15 -3 8 -13 15 -23 15 -16 -1 -15 -3 5 -19z"/>
<path d="M1605 1319 c-11 -16 -1 -19 13 -3 7 8 8 14 3 14 -5 0 -13 -5 -16 -11z"/>
<path d="M677 1309 c7 -7 15 -10 18 -7 3 3 -2 9 -12 12 -14 6 -15 5 -6 -5z"/>
<path d="M765 1310 c-3 -5 1 -10 9 -10 8 0 18 -4 21 -10 3 -6 -1 -7 -10 -4
-22 9 -8 -24 16 -37 15 -8 19 -6 19 8 0 21 -27 63 -40 63 -5 0 -12 -4 -15 -10z"/>
<path d="M605 1300 c-3 -5 -1 -10 4 -10 6 0 11 5 11 10 0 6 -2 10 -4 10 -3 0
-8 -4 -11 -10z"/>
<path d="M1815 1211 c-1 -49 2 -88 5 -86 9 6 12 175 3 175 -4 0 -8 -40 -8 -89z"/>
<path d="M1029 1278 c14 -19 32 -15 30 5 0 8 -2 8 -6 -1 -4 -10 -8 -10 -21 0
-15 12 -16 11 -3 -4z"/>
<path d="M1336 1278 c3 -5 10 -6 15 -3 13 9 11 12 -6 12 -8 0 -12 -4 -9 -9z"/>
<path d="M1470 1265 c0 -8 4 -15 8 -15 5 0 9 7 9 15 0 8 -4 15 -9 15 -4 0 -8
-7 -8 -15z"/>
<path d="M458 1264 c-3 -5 3 -17 14 -26 21 -21 24 -10 5 17 -8 10 -16 14 -19
9z"/>
<path d="M693 1244 c-5 -12 -8 -13 -14 -3 -4 8 -7 -1 -5 -21 2 -19 8 -34 14
-33 6 2 9 -3 6 -11 -3 -8 5 -21 17 -30 23 -15 44 -13 33 5 -11 18 -14 59 -4
59 5 0 10 -12 10 -27 0 -20 3 -24 9 -14 7 10 9 7 8 -12 -2 -24 -13 -32 -39
-28 -5 0 -8 -3 -8 -9 0 -9 22 -15 43 -11 4 1 5 -14 2 -31 -4 -26 -3 -29 5 -16
6 10 9 19 8 22 -2 2 5 13 15 24 16 17 16 21 2 32 -8 7 -12 17 -8 23 3 5 -2 16
-11 23 -10 7 -19 20 -20 29 -1 9 -15 22 -30 30 -24 13 -28 12 -33 -1z m17 -39
c0 -2 -6 -5 -13 -8 -8 -3 -14 1 -14 8 0 7 6 11 14 8 7 -3 13 -6 13 -8z m23
-49 c4 -10 1 -13 -9 -9 -7 3 -14 9 -14 14 0 14 17 10 23 -5z"/>
<path d="M1055 1251 c-7 -12 2 -31 15 -31 9 0 8 26 -2 35 -3 4 -9 2 -13 -4z"/>
<path d="M1096 1233 c-6 -14 -5 -15 5 -6 7 7 10 15 7 18 -3 3 -9 -2 -12 -12z"/>
<path d="M1132 1231 c7 -9 13 -18 15 -20 1 -2 1 5 0 16 0 11 -7 20 -14 20 -10
0 -10 -4 -1 -16z"/>
<path d="M1579 1228 c-5 -19 -8 -50 -4 -46 7 7 15 48 9 48 -2 0 -4 -1 -5 -2z"/>
<path d="M1793 1215 c0 -8 4 -12 9 -9 5 3 6 10 3 15 -9 13 -12 11 -12 -6z"/>
<path d="M115 1210 c-3 -5 -2 -10 4 -10 5 0 13 5 16 10 3 6 2 10 -4 10 -5 0
-13 -4 -16 -10z"/>
<path d="M1087 1195 c-4 -9 -3 -13 3 -10 5 3 14 -4 20 -15 13 -25 39 -27 36
-2 -2 9 -11 17 -20 17 -9 0 -21 6 -25 13 -7 11 -10 10 -14 -3z"/>
<path d="M215 1183 c-11 -3 -24 -9 -29 -14 -6 -5 4 -5 21 0 18 5 35 6 39 3 4
-4 4 -1 0 6 -4 6 -8 11 -9 11 -1 -1 -11 -3 -22 -6z"/>
<path d="M1164 1165 c0 -13 4 -21 8 -19 4 3 12 -6 18 -20 6 -17 14 -24 25 -20
14 6 14 8 -1 19 -9 6 -14 17 -10 23 3 6 1 14 -5 18 -8 5 -9 3 -4 -6 5 -8 3
-11 -6 -8 -8 3 -14 10 -14 16 0 5 -2 13 -5 16 -4 3 -6 -5 -6 -19z"/>
<path d="M1342 1150 c-7 -12 -8 -20 -2 -20 5 0 10 5 10 11 0 8 6 7 18 -2 15
-12 16 -12 5 2 -7 9 -10 19 -6 22 3 4 2 7 -3 7 -5 0 -15 -9 -22 -20z"/>
<path d="M1791 1154 c0 -11 3 -14 6 -6 3 7 2 16 -1 19 -3 4 -6 -2 -5 -13z"/>
<path d="M1560 1150 c-8 -5 -12 -12 -9 -15 4 -3 12 1 19 10 14 17 11 19 -10 5z"/>
<path d="M1530 1120 c0 -5 5 -10 11 -10 5 0 7 5 4 10 -3 6 -8 10 -11 10 -2 0
-4 -4 -4 -10z"/>
<path d="M1460 1090 c13 -25 39 -37 49 -23 3 5 15 15 26 21 11 6 16 11 10 12
-5 0 -16 -4 -24 -9 -10 -6 -25 -4 -44 5 -28 15 -28 15 -17 -6z"/>
<path d="M1810 1100 c0 -5 5 -10 10 -10 6 0 10 5 10 10 0 6 -4 10 -10 10 -5 0
-10 -4 -10 -10z"/>
<path d="M669 1100 c-8 -21 -4 -50 7 -50 8 0 14 3 13 8 -1 12 -17 47 -20 42z"/>
<path d="M690 1084 c0 -4 8 -13 18 -21 9 -8 12 -12 6 -9 -6 3 -19 -3 -29 -14
-10 -12 -13 -20 -7 -20 7 0 12 -6 12 -14 0 -7 8 -20 18 -27 16 -13 16 -13 2 5
-14 18 -14 19 7 7 22 -11 23 -10 18 25 -7 55 -15 74 -31 74 -8 0 -14 -3 -14
-6z m18 -69 c-3 -3 -9 2 -12 12 -6 14 -5 15 5 6 7 -7 10 -15 7 -18z"/>
<path d="M825 1080 c-3 -5 -1 -10 4 -10 6 0 11 5 11 10 0 6 -2 10 -4 10 -3 0
-8 -4 -11 -10z"/>
<path d="M1536 1072 c-3 -6 -2 -13 4 -17 6 -4 8 -11 5 -16 -4 -5 -1 -9 5 -9 6
0 8 -4 5 -10 -3 -5 -1 -10 4 -10 6 0 11 -8 12 -17 0 -10 3 -13 5 -7 6 15 -32
98 -40 86z"/>
<path d="M1821 1070 c0 -8 4 -22 9 -30 12 -18 12 -2 0 25 -6 13 -9 15 -9 5z"/>
<path d="M770 1046 c-7 -13 -10 -41 -8 -62 3 -29 1 -38 -14 -42 -10 -2 -16 -8
-13 -12 5 -7 -23 -70 -30 -70 -3 0 -2 18 1 40 7 47 -3 53 -17 10 -10 -26 -13
-28 -26 -15 -19 19 -22 19 -18 -2 2 -10 4 -25 4 -33 1 -13 2 -13 11 0 6 9 10
10 10 3 0 -7 -8 -17 -17 -22 -10 -6 -13 -11 -7 -11 13 0 6 -47 -8 -56 -5 -3
-3 -13 4 -22 10 -12 10 -14 1 -8 -8 4 -13 2 -13 -8 0 -8 -12 -28 -26 -45 -14
-17 -23 -35 -19 -41 3 -5 0 -20 -7 -32 -7 -13 -11 -26 -10 -30 1 -5 -2 -8 -7
-8 -5 0 -7 -13 -5 -28 3 -21 -2 -34 -20 -51 -24 -23 -26 -23 -51 -7 -29 19
-55 8 -55 -22 0 -12 4 -11 16 6 16 23 39 20 30 -4 -7 -19 28 -18 44 1 7 8 21
15 31 15 11 0 20 6 20 13 1 6 2 26 4 42 1 17 5 41 10 55 4 14 8 32 9 41 1 8
14 31 28 50 36 49 50 78 44 94 -3 8 0 17 6 21 7 5 8 2 3 -7 -7 -12 -6 -12 6 0
10 10 11 15 2 18 -13 5 -6 33 9 33 5 0 6 -6 3 -12 -4 -7 1 -4 9 6 9 11 22 21
29 22 6 1 31 9 54 17 48 18 53 15 74 -48 7 -22 17 -44 21 -50 4 -5 8 -16 8
-25 1 -8 20 -35 42 -60 23 -25 34 -34 25 -20 -9 14 -22 35 -27 48 -6 13 -14
21 -19 17 -6 -3 -10 3 -10 12 -1 38 -5 53 -12 53 -5 0 -5 7 -2 17 4 11 3 14
-5 9 -7 -4 -12 -2 -12 4 0 7 7 9 16 6 12 -5 15 -2 10 9 -4 11 -2 14 6 9 8 -5
9 0 5 17 l-6 24 20 -24 c10 -13 19 -33 19 -45 0 -16 -2 -18 -9 -6 -6 8 -7 18
-5 22 3 4 1 8 -5 8 -5 0 -13 -9 -16 -20 -8 -25 21 -74 36 -64 8 4 8 0 0 -14
-9 -16 -4 -27 26 -66 19 -25 41 -46 48 -46 26 0 35 -25 19 -49 -9 -12 -13 -25
-10 -28 3 -4 6 0 6 8 0 12 2 12 9 -1 13 -19 3 -32 -19 -25 -10 3 -22 0 -26 -6
-4 -8 -3 -9 4 -5 7 4 12 1 12 -9 0 -11 -5 -15 -15 -11 -8 3 -15 1 -15 -4 0
-14 30 -12 60 3 21 10 25 20 26 56 0 36 -6 49 -38 84 -52 55 -71 93 -74 143
-1 22 -5 55 -9 73 l-7 31 53 -6 c46 -6 52 -5 42 8 -8 9 -9 18 -3 24 6 6 0 10
-17 12 -32 2 -50 17 -34 26 6 4 11 13 11 19 0 7 -5 4 -11 -6 -8 -14 -14 -15
-24 -7 -8 7 -16 7 -19 2 -3 -6 1 -15 9 -22 18 -15 20 -34 3 -24 -7 4 -8 3 -4
-4 11 -19 -5 -14 -21 6 -14 16 -14 16 -9 0 3 -12 0 -18 -9 -18 -8 0 -15 7 -15
15 0 8 -4 15 -10 15 -5 0 -8 -6 -6 -12 1 -7 1 -9 -2 -5 -2 4 -11 0 -19 -10
-13 -17 -13 -17 -4 3 13 26 -23 109 -43 101 -7 -3 -13 1 -13 9 0 8 7 14 14 14
8 0 11 5 8 10 -11 17 -31 11 -45 -14z m60 -72 c0 -8 5 -14 10 -14 6 0 4 -12
-4 -29 -12 -23 -20 -28 -43 -24 -22 4 -25 2 -13 -6 8 -6 10 -11 4 -11 -16 0
-24 11 -16 24 4 6 7 15 7 20 0 5 10 10 22 11 33 2 41 15 15 22 -18 4 -20 8
-11 19 13 16 29 9 29 -12z m179 -40 c4 3 8 -1 8 -9 0 -17 -13 -20 -22 -5 -3 5
-13 6 -22 3 -11 -4 -14 -3 -9 6 5 7 0 21 -11 34 -12 15 -8 13 15 -6 19 -15 37
-25 41 -23z m-59 -134 c0 -5 -2 -10 -4 -10 -3 0 -8 5 -11 10 -3 6 -1 10 4 10
6 0 11 -4 11 -10z m49 -113 c14 -16 19 -26 11 -22 -16 6 -60 65 -60 81 0 5 6
0 12 -11 6 -11 22 -33 37 -48z"/>
<path d="M811 924 c0 -11 3 -14 6 -6 3 7 2 16 -1 19 -3 4 -6 -2 -5 -13z"/>
<path d="M1792 1044 c-1 -13 0 -24 2 -24 7 0 14 40 7 44 -4 3 -8 -6 -9 -20z"/>
<path d="M1383 1040 c-18 -11 -33 -22 -33 -25 0 -3 11 2 24 10 40 26 77 16
106 -30 47 -74 59 -134 23 -121 -8 3 -11 2 -8 -3 8 -14 -41 -7 -59 9 -12 9
-16 9 -16 1 0 -7 -5 -9 -10 -6 -6 4 -8 11 -5 16 3 5 -1 6 -10 3 -10 -4 -14 -1
-12 7 2 8 2 10 -1 6 -2 -4 -10 -3 -18 4 -8 6 -12 15 -9 19 3 5 0 12 -6 16 -8
4 -9 3 -5 -4 9 -15 -6 -16 -21 -1 -14 14 -82 19 -90 6 -4 -7 0 -8 13 -3 13 5
16 4 9 -3 -14 -14 -65 -22 -65 -10 0 5 -5 9 -11 9 -5 0 -7 -6 -3 -12 5 -10 4
-10 -6 -1 -15 14 -43 5 -33 -11 4 -6 -1 -5 -10 3 -18 14 -13 36 5 25 7 -4 8
-2 4 5 -4 6 -12 9 -17 6 -5 -4 -15 -3 -21 2 -17 10 -42 14 -33 5 4 -4 11 -7
16 -7 5 0 10 -4 11 -10 0 -5 8 -15 17 -22 13 -10 13 -12 2 -13 -8 0 -25 9 -37
21 l-21 20 0 -26 c0 -14 3 -28 8 -31 5 -3 9 -1 9 5 0 6 8 7 22 2 28 -10 70 -2
61 13 -5 7 -2 7 8 -1 11 -9 31 -8 87 4 l72 16 47 -37 c26 -20 52 -35 59 -32 7
3 10 -6 8 -24 -2 -16 3 -33 11 -40 12 -10 17 -7 27 14 8 19 18 26 32 24 12 -2
22 -9 22 -15 1 -7 2 -20 3 -28 1 -16 19 -19 39 -6 10 6 5 28 -26 102 -59 140
-62 146 -89 158 -31 14 -33 14 -70 -9z m84 -210 c-6 -16 -13 -28 -15 -26 -6 6
10 56 18 56 5 0 3 -13 -3 -30z m88 -19 c3 -5 1 -12 -5 -16 -5 -3 -10 1 -10 9
0 18 6 21 15 7z"/>
<path d="M1607 1031 c-4 -17 -3 -21 5 -13 5 5 8 16 6 23 -3 8 -7 3 -11 -10z"/>
<path d="M880 1018 c17 -21 11 -32 -8 -15 -27 25 -32 21 -21 -13 6 -16 16 -30
22 -30 6 0 7 3 4 7 -4 3 1 12 11 19 16 12 16 14 0 28 -10 9 -13 11 -8 4z"/>
<path d="M913 1006 c3 -7 0 -20 -6 -27 -10 -11 -9 -11 5 0 15 11 15 41 1 41
-3 0 -3 -6 0 -14z"/>
<path d="M1194 1012 c4 -3 14 -7 22 -8 9 -1 13 0 10 4 -4 3 -14 7 -22 8 -9 1
-13 0 -10 -4z"/>
<path d="M1820 1010 c0 -6 7 -10 15 -10 8 0 15 2 15 4 0 2 -7 6 -15 10 -8 3
-15 1 -15 -4z"/>
<path d="M1446 993 c-6 -14 -5 -15 5 -6 7 7 10 15 7 18 -3 3 -9 -2 -12 -12z"/>
<path d="M1080 996 c0 -2 8 -10 18 -17 15 -13 16 -12 3 4 -13 16 -21 21 -21
13z"/>
<path d="M1153 985 c0 -8 4 -12 9 -9 5 3 6 10 3 15 -9 13 -12 11 -12 -6z"/>
<path d="M629 973 c-13 -16 -12 -17 4 -4 9 7 17 15 17 17 0 8 -8 3 -21 -13z"/>
<path d="M1006 978 c3 -5 9 -7 12 -4 3 3 12 0 21 -6 13 -10 14 -10 4 2 -15 16
-46 23 -37 8z"/>
<path d="M1850 983 c0 -6 9 -21 21 -34 l20 -24 -17 30 c-24 39 -24 40 -24 28z"/>
<path d="M1740 968 c0 -9 9 -14 22 -14 16 1 23 -5 23 -18 0 -10 8 -20 17 -22
15 -2 17 3 12 24 -8 34 -5 31 -42 38 -24 5 -32 3 -32 -8z"/>
<path d="M677 945 c-15 -11 -17 -17 -7 -32 10 -16 11 -16 6 0 -3 9 -1 17 3 17
5 0 11 7 15 15 7 18 6 18 -17 0z"/>
<path d="M1585 930 c-3 -5 -1 -10 4 -10 6 0 11 5 11 10 0 6 -2 10 -4 10 -3 0
-8 -4 -11 -10z"/>
<path d="M1880 915 c0 -13 42 -87 46 -82 7 7 -22 73 -35 81 -6 4 -11 4 -11 1z"/>
<path d="M591 844 c0 -11 3 -14 6 -6 3 7 2 16 -1 19 -3 4 -6 -2 -5 -13z"/>
<path d="M1570 849 c0 -5 5 -7 10 -4 6 3 10 8 10 11 0 2 -4 4 -10 4 -5 0 -10
-5 -10 -11z"/>
<path d="M581 804 c0 -11 3 -14 6 -6 3 7 2 16 -1 19 -3 4 -6 -2 -5 -13z"/>
<path d="M571 760 c-2 -14 -4 -38 -7 -55 -3 -29 -3 -29 7 -5 5 13 8 38 6 55
-3 26 -4 27 -6 5z"/>
<path d="M604 769 c-3 -6 -2 -15 3 -20 5 -5 9 -1 9 11 0 23 -2 24 -12 9z"/>
<path d="M1565 739 c-11 -16 -1 -19 13 -3 7 8 8 14 3 14 -5 0 -13 -5 -16 -11z"/>
<path d="M1608 688 c-10 -12 -15 -25 -12 -30 4 -5 12 3 20 18 18 34 14 39 -8
12z"/>
<path d="M1546 663 c-6 -14 -5 -15 5 -6 7 7 10 15 7 18 -3 3 -9 -2 -12 -12z"/>
<path d="M537 619 c-9 -28 -13 -48 -9 -45 11 12 40 96 33 96 -4 0 -15 -23 -24
-51z"/>
<path d="M1860 659 c0 -8 6 -22 13 -30 15 -19 88 -62 94 -55 2 2 -15 14 -39
27 -23 13 -48 35 -55 49 -8 15 -13 19 -13 9z"/>
<path d="M1577 644 c-3 -3 -3 -12 -1 -19 3 -7 -3 -15 -13 -19 -12 -5 -14 -9
-6 -14 19 -12 -7 -55 -37 -63 -14 -4 -19 -7 -12 -8 6 -1 12 -6 12 -12 0 -7 -9
-9 -22 -6 -12 4 -28 1 -35 -5 -30 -24 -20 1 17 42 54 62 50 70 -5 11 -48 -52
-55 -70 -27 -72 38 -3 58 3 74 22 9 10 20 19 26 19 11 0 52 119 42 125 -4 3
-10 2 -13 -1z"/>
<path d="M1143 620 c-4 -49 -8 -66 -18 -72 -5 -4 3 -8 18 -8 25 0 28 3 22 23
-5 19 -4 20 5 5 15 -24 25 -23 37 5 l11 22 10 -25 c6 -14 11 -20 11 -13 1 6
12 10 25 9 17 -2 23 1 19 11 -4 10 -9 11 -19 2 -11 -9 -14 -8 -14 3 0 22 11
28 30 18 11 -6 17 -5 17 4 0 8 -13 12 -34 11 -18 -1 -33 3 -33 8 0 6 -7 2 -15
-9 -12 -16 -14 -16 -15 -3 0 23 -55 31 -57 9z m41 -22 c-3 -4 0 -8 6 -8 6 0 8
-5 4 -11 -5 -8 -10 -6 -16 5 -5 9 -14 13 -20 10 -6 -4 -8 -3 -5 3 3 5 13 10
21 10 8 0 13 -4 10 -9z m66 6 c0 -8 -19 -13 -24 -6 -3 5 1 9 9 9 8 0 15 -2 15
-3z"/>
<path d="M815 612 c-10 -9 -15 -11 -11 -4 4 6 2 12 -3 12 -6 0 -11 -6 -11 -12
0 -9 -4 -8 -10 2 -6 9 -10 10 -10 3 0 -8 -12 -11 -36 -8 -24 4 -33 2 -28 -6 3
-6 15 -8 26 -6 14 4 18 1 13 -12 -4 -15 0 -17 25 -13 26 4 29 2 23 -14 -6 -17
-5 -18 12 -4 11 9 16 10 11 3 -4 -8 -2 -13 4 -13 7 0 10 13 8 30 -2 18 3 34
11 39 7 5 9 11 4 14 -5 3 -18 -2 -28 -11z"/>
<path d="M863 620 c5 -21 47 -26 47 -6 0 18 -16 21 -26 5 -4 -8 -9 -7 -16 2
-8 11 -9 11 -5 -1z"/>
<path d="M1315 600 c1 -8 -2 -18 -7 -21 -6 -4 2 -6 17 -6 18 0 23 2 14 8 -7 4
-11 11 -7 14 3 3 13 -2 22 -11 9 -9 20 -13 24 -9 4 4 1 10 -6 12 -6 3 -10 9
-7 14 4 5 -2 6 -11 2 -11 -4 -15 -3 -10 5 4 6 -1 10 -13 9 -11 0 -18 -8 -16
-17z"/>
<path d="M626 596 c3 -7 18 -20 34 -30 17 -9 30 -21 30 -25 0 -5 -20 -14 -45
-21 -85 -24 -39 -34 60 -14 17 4 41 18 55 32 l25 25 -27 -7 c-21 -5 -28 -3
-28 9 0 8 -4 15 -10 15 -14 0 -12 -12 7 -40 16 -22 16 -23 -1 -17 -10 4 -20 7
-22 7 -3 0 -3 4 1 9 3 5 -15 23 -39 39 -25 17 -43 25 -40 18z"/>
<path d="M665 600 c-3 -5 1 -13 10 -16 22 -9 29 1 11 15 -10 8 -16 9 -21 1z"/>
<path d="M1633 591 c-10 -16 -9 -18 8 -14 10 3 19 12 19 19 0 20 -13 17 -27
-5z"/>
<path d="M1673 591 c0 -11 7 -17 14 -14 7 3 17 -6 23 -21 5 -14 12 -26 14 -26
3 0 3 6 0 14 -3 8 -1 17 5 21 6 3 11 -1 11 -10 0 -21 22 -15 25 6 2 11 -5 15
-26 14 -16 -1 -37 6 -48 16 -19 18 -20 18 -18 0z"/>
<path d="M840 595 c1 -5 7 -18 14 -28 13 -17 14 -16 19 3 3 12 1 18 -5 14 -6
-4 -14 0 -19 7 -5 8 -9 10 -9 4z"/>
<path d="M1429 595 c-1 -3 -2 -8 -3 -12 -1 -5 -5 -15 -11 -23 -7 -12 -6 -13 6
-3 8 6 17 12 22 12 4 1 7 3 7 6 0 3 0 10 0 15 0 10 -19 14 -21 5z"/>
<path d="M898 579 c17 -18 15 -34 -3 -19 -9 7 -15 8 -15 2 0 -5 6 -12 13 -15
15 -6 53 20 44 30 -4 3 -7 3 -7 -1 0 -4 -10 -1 -22 5 -19 9 -21 9 -10 -2z"/>
<path d="M1390 580 c0 -5 5 -10 10 -10 6 0 10 5 10 10 0 6 -4 10 -10 10 -5 0
-10 -4 -10 -10z"/>
<path d="M486 568 c3 -5 10 -6 15 -3 13 9 11 12 -6 12 -8 0 -12 -4 -9 -9z"/>
<path d="M1640 555 c0 -8 -3 -15 -8 -15 -4 0 -13 -9 -20 -21 -12 -19 -11 -19
8 -9 14 8 20 8 20 0 0 -6 4 -9 9 -6 5 3 7 16 3 28 -3 14 -1 19 6 14 7 -4 20
-2 29 4 16 11 16 11 1 6 -10 -3 -20 -1 -23 4 -9 15 -25 12 -25 -5z"/>
<path d="M491 540 c-13 -11 -19 -20 -14 -20 6 0 18 9 28 20 23 25 17 25 -14 0z"/>
<path d="M1678 523 c6 -2 18 -2 25 0 6 3 1 5 -13 5 -14 0 -19 -2 -12 -5z"/>
<path d="M510 509 c0 -5 5 -7 10 -4 6 3 10 8 10 11 0 2 -4 4 -10 4 -5 0 -10
-5 -10 -11z"/>
</g>
</svg>
