<?xml version="1.0" standalone="no"?>
<!DOCTYPE svg PUBLIC "-//W3C//DTD SVG 20010904//EN"
 "http://www.w3.org/TR/2001/REC-SVG-20010904/DTD/svg10.dtd">
<svg version="1.0" xmlns="http://www.w3.org/2000/svg"
 width="16.000000pt" height="16.000000pt" viewBox="0 0 16.000000 16.000000"
 preserveAspectRatio="xMidYMid meet">
<metadata>
Created by potrace 1.11, written by Peter Selinger 2001-2013
</metadata>
<g transform="translate(0.000000,16.000000) scale(0.008000,-0.008000)"
fill="#000000" stroke="none">
<path d="M160 1518 c-41 -19 -43 -21 -21 -27 18 -5 24 -14 27 -42 2 -30 -4
-44 -42 -87 -24 -28 -44 -54 -43 -59 4 -21 -2 -43 -11 -43 -7 0 -7 8 1 23 7
14 -4 7 -31 -19 -50 -49 -50 -76 1 -111 26 -18 36 -19 62 -11 36 11 103 23
189 34 58 7 58 7 95 -32 20 -21 40 -39 44 -39 4 0 14 -7 21 -15 11 -12 11 -12
-4 -1 -10 7 -18 10 -18 6 0 -9 80 -123 128 -182 l34 -43 -16 -77 c-32 -144
-48 -202 -62 -220 -13 -16 -14 -16 -8 0 8 22 -9 22 -27 0 -8 -10 -9 -14 -2
-10 6 4 14 3 18 -3 3 -5 -12 -26 -35 -46 -22 -20 -40 -40 -40 -45 0 -5 23 -9
50 -9 36 0 52 4 56 15 4 8 15 15 25 15 22 0 26 8 32 60 8 62 28 123 52 154 12
17 36 58 53 91 29 58 33 62 87 79 66 21 66 21 90 -61 8 -28 26 -64 38 -80 13
-15 38 -50 57 -77 29 -43 32 -54 27 -96 -3 -26 -3 -50 -1 -53 9 -8 68 14 81
30 8 10 9 23 3 39 -6 14 -6 26 1 29 5 4 -13 31 -40 61 -52 56 -64 86 -76 181
l-7 53 94 -7 c85 -5 200 9 263 33 20 8 120 -75 125 -104 6 -33 31 -35 45 -4
15 33 45 29 45 -7 0 -29 22 -47 42 -35 17 11 -2 -68 -33 -136 -17 -36 -49 -84
-72 -108 -35 -35 -39 -44 -27 -53 21 -13 82 -1 103 22 10 10 22 19 27 19 6 0
10 9 10 21 0 11 21 68 47 127 39 89 47 118 48 169 0 34 3 64 6 68 6 6 101 -27
127 -44 15 -9 51 -130 52 -169 0 -39 28 -79 70 -101 58 -30 64 -28 56 19 -5
32 -3 40 9 40 22 0 19 12 -20 70 -38 56 -43 72 -21 64 20 -8 3 35 -59 156
l-49 95 -6 190 c-6 206 -13 235 -66 270 -21 14 -38 16 -78 10 -28 -3 -80 -6
-116 -5 -36 1 -86 -4 -112 -9 -66 -15 -486 -16 -594 -1 -76 10 -101 10 -164
-3 -97 -20 -350 -14 -363 9 -12 22 -62 44 -99 44 -18 0 -53 -10 -78 -22z m67
-4 c-3 -3 -12 -4 -19 -1 -8 3 -5 6 6 6 11 1 17 -2 13 -5z m33 -14 c0 -5 -2
-10 -4 -10 -3 0 -8 5 -11 10 -3 6 -1 10 4 10 6 0 11 -4 11 -10z m1498 -20 c17
-11 32 -26 32 -34 0 -8 3 -23 6 -33 3 -10 -6 1 -20 23 -14 23 -33 45 -42 48
-18 7 -54 -10 -54 -25 0 -5 -12 -7 -27 -4 -65 13 -94 15 -88 5 3 -5 15 -10 26
-10 24 0 59 -17 59 -29 0 -5 -10 -7 -22 -5 -16 4 -12 -1 12 -15 19 -11 29 -20
21 -21 -11 0 -11 -3 -1 -15 7 -9 10 -19 6 -22 -4 -4 -11 -1 -16 6 -10 17 -40
7 -40 -13 0 -7 -7 -16 -15 -20 -8 -3 -14 0 -12 6 1 7 -4 13 -10 14 -7 1 -14 3
-15 4 -7 7 -48 6 -48 0 0 -13 27 -31 41 -28 8 2 13 -2 12 -9 -2 -7 6 -17 17
-23 11 -6 18 -15 14 -21 -3 -5 0 -18 8 -27 12 -15 11 -16 -4 -4 -14 11 -17 10
-24 -10 -4 -13 -7 -29 -5 -36 1 -7 -5 -15 -14 -18 -9 -4 -14 -13 -11 -21 3 -8
1 -11 -4 -8 -6 3 -10 -3 -10 -13 0 -11 -7 -23 -16 -26 -19 -7 -70 18 -83 41
-8 15 -13 16 -30 5 -13 -7 -21 -8 -21 -2 0 5 -5 10 -11 10 -5 0 -7 -5 -3 -12
4 -7 3 -8 -4 -4 -9 5 -7 14 5 31 10 12 21 21 26 18 12 -7 8 12 -5 27 -7 8 -2
6 11 -5 13 -11 28 -31 34 -45 8 -20 11 -22 14 -7 3 9 8 17 13 17 4 0 11 16 14
35 4 19 11 35 15 35 5 0 12 12 17 28 11 40 11 46 2 58 -5 7 -8 16 -7 20 1 5 0
11 -1 14 -1 3 -3 13 -5 24 -3 14 -1 16 8 7 16 -16 22 -14 35 14 9 19 8 27 -3
39 -18 17 -20 30 -3 20 8 -5 9 -2 5 9 -6 15 0 16 46 11 29 -3 63 -1 77 5 38
15 62 13 98 -9z m-998 -10 c-24 -8 -23 -8 8 -9 20 -1 31 3 27 9 -4 6 8 10 29
10 20 0 36 -4 36 -9 0 -5 -10 -7 -22 -5 -22 4 -21 4 1 -6 14 -6 27 -7 30 -3 3
4 103 8 222 8 213 0 244 -5 186 -30 -12 -6 -21 -18 -21 -28 2 -17 0 -17 -22
-2 -16 10 -24 12 -24 4 0 -7 -3 -9 -7 -5 -5 4 1 14 11 22 14 10 16 14 5 14 -8
1 -31 3 -53 6 -37 6 -39 5 -34 -20 6 -31 -6 -41 -44 -38 -14 1 -29 -2 -33 -7
-3 -6 -12 -8 -19 -5 -23 9 -26 -44 -4 -71 15 -20 16 -24 4 -19 -9 3 -16 2 -16
-4 0 -5 7 -13 16 -16 8 -3 13 -10 10 -15 -10 -15 26 -36 62 -36 23 0 37 -5 39
-15 3 -9 1 -11 -4 -5 -11 14 -55 13 -60 -1 -5 -14 23 -44 43 -45 8 -1 18 -2
24 -3 5 0 17 -11 25 -23 19 -27 71 -33 61 -8 -5 13 -2 13 19 -1 25 -16 36 -32
13 -18 -8 5 -9 2 -4 -12 4 -10 4 -15 0 -12 -8 8 -34 -14 -28 -24 3 -4 12 -5
22 -2 10 4 13 3 6 -3 -6 -4 -16 -17 -23 -28 -8 -13 -11 -14 -7 -3 2 9 2 19 -1
22 -9 9 -44 -14 -38 -24 4 -6 -1 -7 -11 -3 -13 5 -15 3 -9 -8 6 -11 5 -12 -6
-1 -7 6 -17 12 -22 12 -4 0 -5 -6 0 -12 11 -19 13 -39 2 -32 -5 3 -7 9 -4 14
3 4 -2 13 -9 19 -20 17 -32 -5 -15 -27 8 -9 1 -6 -14 7 -15 14 -27 21 -27 17
0 -5 -7 -3 -15 4 -12 10 -15 9 -15 -6 -1 -18 -1 -18 -15 0 -8 11 -17 17 -20
14 -3 -3 5 -18 17 -34 l22 -29 -22 19 c-23 20 -30 10 -9 -14 6 -8 2 -6 -10 4
-23 19 -33 43 -13 31 13 -8 13 1 -1 26 -5 11 -14 17 -20 14 -5 -4 -9 -1 -9 5
0 6 -4 8 -10 5 -5 -3 -10 -1 -10 4 0 16 -27 13 -33 -3 -6 -16 -55 -10 -75 10
-11 11 -10 18 3 38 15 23 15 25 -9 50 -15 14 -26 37 -26 51 0 14 -4 25 -10 25
-13 0 -13 -16 1 -42 6 -11 8 -22 5 -25 -3 -3 -9 3 -12 13 -4 10 -14 27 -21 36
-8 9 -12 21 -9 27 8 12 -27 26 -74 30 -10 1 -11 4 -4 9 27 18 51 97 33 108 -5
3 -9 -4 -9 -15 0 -19 -3 -20 -20 -9 -24 15 -34 6 -25 -21 7 -22 35 -29 35 -9
0 6 2 9 5 6 4 -3 -5 -23 -20 -43 -14 -21 -25 -44 -25 -52 0 -20 20 -56 36 -66
8 -4 14 -14 14 -21 0 -7 11 -22 25 -34 22 -19 25 -30 25 -93 0 -64 -2 -70 -19
-64 -15 5 -18 1 -13 -21 3 -18 1 -25 -6 -20 -6 4 -9 13 -6 20 8 22 -20 38 -49
27 -14 -5 -28 -15 -33 -22 -5 -9 -2 -10 9 -6 10 3 17 2 17 -3 0 -6 -4 -10 -10
-10 -5 0 -10 -16 -10 -35 0 -20 -9 -53 -19 -74 -11 -20 -18 -50 -16 -66 1 -16
-4 -35 -11 -43 -8 -7 -15 -22 -15 -33 -2 -24 -3 -27 -22 -71 -19 -41 -23 -73
-7 -48 6 9 10 10 10 3 0 -23 -44 -54 -67 -48 -16 4 -23 1 -23 -10 0 -8 -8 -15
-17 -15 -12 0 -4 13 29 44 49 48 83 119 99 211 18 107 21 117 30 104 7 -11 9
-10 9 4 0 9 -6 17 -12 17 -8 1 -5 6 5 14 16 12 17 18 7 36 -22 40 -49 152 -34
139 7 -6 15 -20 17 -32 3 -15 5 -11 6 11 0 20 -7 44 -19 59 -22 29 -25 55 -9
85 8 16 8 22 -2 29 -10 6 -9 16 6 48 10 23 21 41 25 41 5 0 10 6 13 13 3 6 13
29 22 50 9 22 11 36 6 32 -10 -6 -13 -2 -15 28 -2 25 -20 35 -33 18 -11 -14
-12 -14 -13 -1 0 12 -2 12 -8 2 -6 -9 -11 -7 -19 10 -10 22 -9 23 46 26 31 1
70 6 86 11 17 5 44 9 60 9 29 0 29 0 5 -8z m-346 -39 c4 -5 -3 -7 -14 -4 -23
6 -26 13 -6 13 8 0 17 -4 20 -9z m-174 -37 c0 -2 -9 0 -20 6 -11 6 -20 13 -20
16 0 2 9 0 20 -6 11 -6 20 -13 20 -16z m161 9 c13 -16 12 -17 -3 -4 -10 7 -18
15 -18 17 0 8 8 3 21 -13z m-86 -13 c3 -5 1 -10 -4 -10 -6 0 -11 5 -11 10 0 6
2 10 4 10 3 0 8 -4 11 -10z m308 -8 c-2 -7 2 -12 8 -12 7 0 0 -9 -15 -21 -14
-11 -26 -25 -26 -31 0 -6 6 -6 15 2 12 10 12 7 -1 -19 -9 -17 -18 -31 -20 -31
-3 0 -2 5 1 10 11 17 -7 11 -21 -7 -13 -17 -13 -17 -14 0 0 9 9 26 20 37 20
20 28 46 11 36 -12 -8 -22 20 -15 38 7 18 60 15 57 -2z m567 -2 c6 -11 8 -20
6 -20 -3 0 -10 9 -16 20 -6 11 -8 20 -6 20 3 0 10 -9 16 -20z m623 -37 c2 -23
0 -47 -4 -55 -5 -8 -9 10 -9 46 0 67 6 71 13 9z m-1575 12 c-3 -3 -9 2 -12 12
-6 14 -5 15 5 6 7 -7 10 -15 7 -18z m157 15 c3 -5 1 -10 -4 -10 -6 0 -11 5
-11 10 0 6 2 10 4 10 3 0 8 -4 11 -10z m1326 -7 c13 -16 12 -17 -3 -4 -10 7
-18 15 -18 17 0 8 8 3 21 -13z m-547 -32 c-3 -3 -15 6 -27 18 l-22 24 27 -19
c14 -10 24 -21 22 -23z m307 12 c13 -16 12 -17 -3 -4 -10 7 -18 15 -18 17 0 8
8 3 21 -13z m-1264 1 c-3 -3 -12 -4 -19 -1 -8 3 -5 6 6 6 11 1 17 -2 13 -5z
m909 -27 c1 -11 -3 -14 -14 -9 -15 5 -15 4 -2 -14 11 -14 8 -13 -11 4 -14 12
-29 19 -32 15 -4 -3 -7 -1 -7 5 0 16 13 15 29 0 11 -11 13 -10 8 4 -4 11 -1
15 10 14 9 -2 17 -10 19 -19z m39 -7 c16 -17 16 -20 3 -15 -9 4 -19 13 -22 21
-7 19 -2 18 19 -6z m311 -10 c0 -11 -4 -20 -9 -20 -4 0 -6 -14 -3 -30 2 -17 0
-28 -5 -24 -5 3 -9 16 -9 29 0 13 -5 27 -12 31 -7 5 -5 11 7 21 25 18 31 17
31 -7z m314 -147 c0 -155 0 -156 -20 -138 -23 21 -25 55 -10 172 23 172 30
164 30 -34z m-672 103 c12 2 22 0 22 -5 0 -5 8 -7 18 -5 10 2 26 -9 41 -29
l25 -32 -31 28 c-16 15 -34 27 -39 26 -5 -1 -12 0 -16 1 -5 1 -17 4 -28 5 -11
1 -24 3 -29 4 -5 0 -11 11 -14 24 l-6 22 17 -21 c11 -13 26 -20 40 -18z m53
17 c11 -15 11 -16 0 -6 -7 6 -21 9 -30 6 -14 -4 -14 -3 -1 6 8 6 16 11 16 11
1 0 8 -8 15 -17z m184 5 c5 4 5 1 1 -6 -6 -10 -11 -10 -22 -1 -8 6 -14 14 -14
16 0 3 6 0 13 -6 8 -6 18 -7 22 -3z m-1253 -44 c9 -9 14 -23 11 -32 -5 -14 -3
-15 8 -4 16 15 32 16 27 0 -4 -12 -18 -16 -78 -25 -29 -4 -33 -3 -22 8 6 7 12
21 12 32 0 14 -5 17 -22 11 -19 -6 -21 -4 -11 7 16 20 54 21 75 3z m1147 -38
c-3 -3 -11 5 -18 17 -13 21 -12 21 5 5 10 -10 16 -20 13 -22z m474 4 c-3 -12
-8 -19 -11 -16 -5 6 5 36 12 36 2 0 2 -9 -1 -20z m-513 -27 c0 -7 -39 17 -46
28 -3 6 5 3 20 -6 14 -10 26 -19 26 -22z m410 -25 c9 -30 9 -43 0 -48 -6 -4
-10 -11 -9 -16 4 -14 -12 -74 -19 -74 -13 0 -44 102 -34 109 6 3 14 20 18 36
14 59 27 56 44 -7z m-1219 15 c13 -16 12 -17 -3 -4 -10 7 -18 15 -18 17 0 8 8
3 21 -13z m847 -13 c7 -11 11 -20 9 -20 -2 0 -12 9 -22 20 -10 11 -14 20 -9
20 5 0 15 -9 22 -20z m467 10 c3 -5 1 -10 -4 -10 -6 0 -11 5 -11 10 0 6 2 10
4 10 3 0 8 -4 11 -10z m-1612 -7 c-7 -2 -21 -2 -30 0 -10 3 -4 5 12 5 17 0 24
-2 18 -5z m1357 -68 c21 -20 34 -25 51 -20 18 6 21 4 16 -9 -4 -9 -2 -16 3
-16 6 0 0 -10 -12 -22 -16 -16 -23 -18 -26 -9 -8 25 -42 51 -64 51 -13 0 -37
-8 -53 -18 -36 -22 -68 -18 -35 5 17 12 19 18 9 29 -7 9 -8 14 -3 13 21 -4 33
2 28 14 -9 24 56 11 86 -18z m173 -80 c-3 -16 -9 -34 -14 -39 -4 -5 -5 -15 -2
-24 4 -10 1 -13 -8 -10 -15 6 -15 11 3 80 13 51 31 45 21 -7z m-690 22 c3 -8
-1 -14 -9 -14 -15 0 -18 9 -7 20 9 9 10 9 16 -6z m519 -4 c22 -26 44 -73 53
-112 6 -29 5 -33 -9 -28 -9 4 -16 2 -16 -3 0 -6 -15 -4 -34 4 -19 8 -36 12
-39 10 -2 -3 -10 2 -17 11 -15 18 -34 20 -24 3 4 -7 3 -9 -2 -5 -4 4 -8 19 -9
33 0 13 -3 24 -7 24 -5 0 -16 0 -25 0 -15 0 -14 -2 3 -15 14 -12 9 -11 -20 2
l-39 18 26 9 c15 6 27 14 27 19 0 5 -6 7 -13 4 -8 -3 -14 1 -14 8 0 10 5 11
16 5 10 -5 29 -1 51 10 46 23 73 24 92 3z m88 -27 c0 4 5 3 10 -2 14 -14 38
-111 31 -121 -16 -22 -38 -4 -58 49 -24 60 -22 98 3 77 8 -6 14 -8 14 -3z
m131 -19 c-8 -8 -11 -7 -11 4 0 20 13 34 18 19 3 -7 -1 -17 -7 -23z m168 -23
c11 7 20 -5 26 -34 5 -24 -8 -26 -25 -5 -20 24 -23 11 -6 -31 13 -31 13 -35 2
-20 -15 18 -36 101 -36 134 1 9 7 2 15 -16 8 -18 19 -31 24 -28z m-874 36 c3
-5 2 -10 -4 -10 -5 0 -13 5 -16 10 -3 6 -2 10 4 10 5 0 13 -4 16 -10z m119
-18 c3 -5 -1 -9 -9 -9 -8 0 -12 4 -9 9 3 4 7 8 9 8 2 0 6 -4 9 -8z m-170 -8
c9 -3 16 -10 16 -14 0 -10 -49 0 -56 11 -6 10 17 12 40 3z m176 -20 c0 -8 -19
-13 -24 -6 -3 5 1 9 9 9 8 0 15 -2 15 -3z m686 -40 c1 -9 0 -13 -4 -10 -3 4
-7 14 -8 22 -1 9 0 13 4 10 3 -4 7 -14 8 -22z m-188 -79 c-3 -3 -9 2 -12 12
-6 14 -5 15 5 6 7 -7 10 -15 7 -18z m62 -10 c0 -5 -5 -3 -10 5 -5 8 -10 20
-10 25 0 6 5 3 10 -5 5 -8 10 -19 10 -25z m-1014 -21 c-4 -9 -9 -15 -11 -12
-3 3 -3 13 1 22 4 9 9 15 11 12 3 -3 3 -13 -1 -22z m985 -9 c9 6 11 3 6 -9 -4
-10 -7 -23 -7 -29 0 -6 -7 -2 -15 9 -8 10 -14 26 -15 34 0 12 2 13 9 1 5 -8
14 -10 22 -6z m291 -45 c1 -14 8 -25 15 -25 6 0 14 -3 18 -7 4 -3 0 -5 -9 -4
-24 3 -37 20 -40 50 -4 34 11 20 16 -14z m-312 1 c0 -6 -5 -13 -11 -16 -6 -4
-8 -14 -5 -21 3 -8 -7 -39 -23 -69 -17 -32 -27 -63 -24 -75 4 -15 0 -20 -15
-20 -12 0 -24 -4 -27 -10 -3 -5 -1 -10 5 -10 6 0 9 -4 6 -9 -3 -5 -15 -7 -26
-4 -11 3 -28 -1 -38 -8 -9 -8 2 7 25 32 46 52 63 81 94 163 18 49 39 74 39 47z
m-614 -94 c3 -11 12 -16 21 -13 25 10 33 -4 17 -29 -9 -14 -14 -32 -10 -40 3
-9 2 -14 -3 -11 -5 3 -11 19 -14 36 -4 16 -18 47 -32 70 -14 22 -25 43 -25 47
1 12 39 -39 46 -60z m897 -3 c-3 -7 6 -10 21 -9 17 2 26 -2 26 -11 0 -20 -27
-17 -50 6 -21 21 -25 41 -13 54 9 9 22 -24 16 -40z m72 -44 c3 -5 1 -10 -4
-10 -6 0 -11 5 -11 10 0 6 2 10 4 10 3 0 8 -4 11 -10z"/>
<path d="M698 1454 c-15 -8 -32 -23 -38 -34 -14 -27 -6 -25 23 4 13 12 30 25
38 28 8 3 12 8 9 11 -3 3 -17 -1 -32 -9z"/>
<path d="M880 1450 c0 -5 -8 -10 -17 -10 -11 0 -14 -3 -7 -8 6 -4 13 -15 17
-24 3 -10 11 -18 17 -18 6 0 5 8 -2 21 -10 17 -10 23 0 26 14 6 16 23 2 23 -5
0 -10 -4 -10 -10z"/>
<path d="M725 1380 c3 -5 8 -10 11 -10 2 0 4 5 4 10 0 6 -5 10 -11 10 -5 0 -7
-4 -4 -10z"/>
<path d="M845 1370 c3 -5 1 -19 -5 -30 -9 -16 -8 -20 6 -20 10 0 14 5 10 15
-3 8 -1 15 4 15 5 0 7 7 4 15 -4 8 -10 15 -16 15 -5 0 -6 -4 -3 -10z"/>
<path d="M755 1310 c-3 -5 -1 -10 4 -10 6 0 11 -6 11 -14 0 -8 11 -23 25 -34
14 -11 21 -23 15 -25 -6 -3 -5 -4 2 -3 17 4 11 56 -9 79 -18 19 -39 22 -48 7z"/>
<path d="M830 1282 c0 -18 5 -32 10 -32 6 0 8 12 6 26 -7 39 -16 42 -16 6z"/>
<path d="M590 1221 c-6 -12 -7 -21 -1 -21 10 0 24 30 17 37 -2 3 -9 -5 -16
-16z"/>
<path d="M1020 1179 c0 -5 5 -7 10 -4 6 3 10 8 10 11 0 2 -4 4 -10 4 -5 0 -10
-5 -10 -11z"/>
<path d="M607 1173 c-10 -9 -9 -23 1 -23 5 0 9 7 9 15 0 17 -1 18 -10 8z"/>
<path d="M830 1171 c0 -5 5 -13 10 -16 6 -3 10 -2 10 4 0 5 -4 13 -10 16 -5 3
-10 2 -10 -4z"/>
<path d="M865 1155 c4 -11 8 -26 8 -32 0 -7 4 -13 9 -13 11 0 0 41 -15 55 -7
7 -8 4 -2 -10z"/>
<path d="M950 1162 c0 -16 -31 -23 -46 -11 -15 12 -19 1 -6 -16 10 -14 32 -17
32 -4 0 5 5 7 10 4 6 -3 10 -1 10 5 0 6 5 8 10 5 6 -3 10 -2 10 4 0 5 -4 13
-10 16 -5 3 -10 2 -10 -3z"/>
<path d="M587 1120 c3 -11 9 -20 13 -20 5 0 6 9 3 20 -3 11 -9 20 -13 20 -5 0
-6 -9 -3 -20z"/>
<path d="M647 1119 c7 -7 15 -10 18 -7 3 3 -2 9 -12 12 -14 6 -15 5 -6 -5z"/>
<path d="M656 1077 c-8 -29 -8 -42 0 -34 4 4 16 -11 26 -33 12 -24 27 -40 38
-40 20 0 34 40 20 54 -6 6 -10 20 -10 32 0 25 -9 33 -44 40 -18 3 -25 -1 -30
-19z"/>
<path d="M870 1083 c0 -6 -3 -18 -6 -27 -4 -11 -1 -16 10 -16 9 0 16 6 16 13
0 16 -20 46 -20 30z"/>
<path d="M620 971 c-13 -25 -13 -31 0 -31 6 0 10 7 10 15 0 8 5 15 10 15 6 0
10 5 10 10 0 17 -19 11 -30 -9z"/>
<path d="M505 510 c-3 -5 -2 -10 4 -10 5 0 13 5 16 10 3 6 2 10 -4 10 -5 0
-13 -4 -16 -10z"/>
<path d="M577 1383 c-4 -3 -7 -11 -7 -17 0 -6 5 -5 12 2 6 6 9 14 7 17 -3 3
-9 2 -12 -2z"/>
<path d="M596 1374 c-10 -25 1 -29 14 -5 6 12 7 21 1 21 -5 0 -12 -7 -15 -16z"/>
<path d="M80 1220 c0 -19 3 -21 12 -12 9 9 9 15 0 24 -9 9 -12 7 -12 -12z"/>
<path d="M1435 990 c-1 -24 4 -41 13 -45 9 -3 12 1 7 15 -4 11 -2 20 4 20 6 0
11 -7 11 -15 0 -8 5 -15 10 -15 16 0 12 15 -10 40 -11 13 -20 27 -20 32 0 4
-3 8 -7 8 -5 0 -8 -18 -8 -40z"/>
<path d="M1480 920 c0 -5 5 -10 11 -10 5 0 7 5 4 10 -3 6 -8 10 -11 10 -2 0
-4 -4 -4 -10z"/>
<path d="M890 631 c0 -5 -22 -8 -50 -6 -32 2 -50 -1 -50 -9 0 -6 -4 -6 -9 3
-5 8 -11 9 -15 3 -3 -5 -17 -8 -31 -7 -14 2 -27 0 -30 -5 -3 -4 -23 -6 -46 -4
-33 3 -40 1 -36 -11 4 -9 1 -12 -9 -8 -7 3 -14 0 -14 -6 0 -6 11 -11 24 -11
13 0 34 -9 47 -20 17 -14 19 -18 7 -14 -10 3 -18 1 -18 -5 0 -6 -6 -8 -13 -5
-8 3 -25 -5 -38 -16 l-24 -21 55 6 c78 9 141 26 134 36 -3 5 1 9 8 10 45 3 62
7 66 17 2 8 8 7 19 -3 16 -16 51 -19 71 -6 11 7 11 11 -2 23 -8 9 -18 27 -22
42 -6 24 -24 37 -24 17z m-26 -37 c3 -8 2 -12 -4 -9 -6 3 -10 10 -10 16 0 14
7 11 14 -7z"/>
<path d="M1137 620 c3 -11 0 -34 -6 -51 -6 -18 -10 -33 -9 -35 2 -1 23 2 48 7
25 5 60 12 79 14 19 3 41 13 48 23 8 9 12 11 8 5 -4 -9 1 -13 14 -13 12 0 21
-7 21 -15 0 -12 7 -14 28 -9 15 4 29 11 30 16 2 4 8 8 13 8 6 0 8 -4 5 -8 -8
-13 33 -7 47 7 17 17 -7 30 -49 26 -19 -1 -31 1 -29 6 3 4 -5 11 -17 15 -36
12 -48 13 -54 3 -3 -5 -9 -7 -13 -4 -5 2 -30 7 -57 10 -27 3 -63 7 -80 10 -28
4 -31 2 -27 -15z m220 -36 c-3 -3 -12 -4 -19 -1 -8 3 -5 6 6 6 11 1 17 -2 13
-5z m33 -14 c0 -5 -10 -10 -22 -9 -22 0 -22 1 -3 9 11 5 21 9 23 9 1 1 2 -3 2
-9z"/>
<path d="M1653 613 c-21 -4 -39 -45 -28 -64 4 -5 -1 -12 -9 -15 -9 -3 -16 -13
-16 -21 0 -13 10 -14 58 -8 31 5 68 7 81 7 16 -1 21 2 18 12 -4 10 2 12 26 7
18 -4 40 -5 50 -3 15 3 13 8 -15 32 -37 32 -51 31 -22 -2 18 -20 18 -21 1 -15
-10 4 -21 7 -23 7 -2 0 -4 6 -4 13 0 8 -11 24 -25 37 -20 19 -28 21 -38 11 -9
-9 -9 -14 3 -21 17 -11 9 -13 -14 -4 -8 3 -12 12 -9 20 3 8 1 13 -3 13 -5 -1
-19 -4 -31 -6z"/>
</g>
</svg>
